<?xml version="1.0" standalone="no"?><!DOCTYPE svg PUBLIC "-//W3C//DTD SVG 1.1//EN" "http://www.w3.org/Graphics/SVG/1.1/DTD/svg11.dtd"><svg t="1674585086217" class="icon" viewBox="0 0 1024 1024" version="1.1" xmlns="http://www.w3.org/2000/svg" p-id="6894" xmlns:xlink="http://www.w3.org/1999/xlink" width="200" height="200"><path d="M512 864c194.4 0 352-157.6 352-352S706.4 160 512 160 160 317.6 160 512s157.6 352 352 352z m0 64C282.24 928 96 741.76 96 512S282.24 96 512 96s416 186.24 416 416-186.24 416-416 416z" fill="#636363" p-id="6895"></path><path d="M512 544h192a32 32 0 0 1 0 64h-224a32 32 0 0 1-32-32V288a32 32 0 0 1 64 0v256z" fill="#636363" p-id="6896"></path></svg>