<svg width="130" height="162" xmlns="http://www.w3.org/2000/svg" xmlns:xlink="http://www.w3.org/1999/xlink" overflow="hidden"><defs><clipPath id="clip0"><rect x="575" y="275" width="130" height="162"/></clipPath></defs><g clip-path="url(#clip0)" transform="translate(-575 -275)"><path d="M704 404 608 404C603.6 404 600 407.6 600 412 600 416.4 603.6 420 608 420L704 420 704 428C704 433.2 701.2 436 696 436L600 436C586 436 576 425.6 576 412L576 300C576 286.4 586 276 600 276L696 276C701.2 276 704 278.8 704 284L704 404Z" fill="#AAD300" fill-rule="evenodd"/><path d="M618.8 352.8C612.4 351.2 608 345.2 608 338.4 608 330 614.4 323.2 622.4 323.2L623.6 323.2C626.4 314.4 634.4 308 644 308 653.6 308 661.6 314.4 664.4 323.2L665.6 323.2C673.6 323.2 680 330 680 338.4 680 345.6 675.6 351.2 669.2 352.8L669.2 368.4C669.2 370.4 667.6 372 665.6 372L622.4 372C620.4 372 618.8 370.4 618.8 368.4L618.8 352.8Z" fill="#E6F4BD" fill-rule="evenodd"/></g></svg>