<svg width="129" height="162" xmlns="http://www.w3.org/2000/svg" xmlns:xlink="http://www.w3.org/1999/xlink" overflow="hidden"><defs><clipPath id="clip0"><rect x="314" y="275" width="129" height="162"/></clipPath></defs><g clip-path="url(#clip0)" transform="translate(-314 -275)"><path d="M442 404 346 404C341.6 404 338 407.6 338 412 338 416.4 341.6 420 346 420L442 420 442 428C442 433.2 439.2 436 434 436L338 436C324 436 314 425.6 314 412L314 300C314 286.4 324 276 338 276L434 276C439.2 276 442 278.8 442 284L442 404Z" fill="#FFC000" fill-rule="evenodd"/><path d="M356.8 352.8C350.4 351.2 346 345.2 346 338.4 346 330 352.4 323.2 360.4 323.2L361.6 323.2C364.4 314.4 372.4 308 382 308 391.6 308 399.6 314.4 402.4 323.2L403.6 323.2C411.6 323.2 418 330 418 338.4 418 345.6 413.6 351.2 407.2 352.8L407.2 368.4C407.2 370.4 405.6 372 403.6 372L360.4 372C358.4 372 356.8 370.4 356.8 368.4L356.8 352.8Z" fill="#FFE699" fill-rule="evenodd"/></g></svg>